# xmcd
#
# Track frame offsets:
#	150
#	18450
#	34465
#	54492
#	73992
#	88410
#	106690
#	129555
#	158967
#	184987
#	215490
#	229572
#	258240
#
# Disc length: 3878 seconds
#
# Revision: 1
# Processed by: cddbd v1.4PL0 Copyright (c) Steve Scherf et al.
# Submitted via: audiograbber 1.81.02
#
DISCID=bb0f240d
DTITLE=Romica Puceanu - Gipsy Songs
DYEAR=1900
DGENRE=Populara, mancati-as!
TTITLE0=Didina, Didina mea
TTITLE1=Pentr-un cal si-o iapa sura
TTITLE2=Cand erai a mea iubita
TTITLE3=Tot am zis ma duc, ma duc
TTITLE4=Puisorul meu dorit
TTITLE5=Pe drumul manastiresc
TTITLE6=Lume, lume...
TTITLE7=Cantec de dragoste
TTITLE8=Toata lumea doarme
TTITLE9=Canta cucul de trei zile
TTITLE10=Mergeam trista pe carare
TTITLE11=Nici nu ninge, nici nu ploua
TTITLE12=Vantule, bataia ta
EXTD=
EXTT0=
EXTT1=
EXTT2=
EXTT3=
EXTT4=
EXTT5=
EXTT6=
EXTT7=
EXTT8=
EXTT9=
EXTT10=
EXTT11=
EXTT12=
PLAYORDER=
